<?xml version="1.0" encoding="UTF-8"?>
<svg width="100px" height="100px" viewBox="0 0 100 100" version="1.1" xmlns="http://www.w3.org/2000/svg" xmlns:xlink="http://www.w3.org/1999/xlink">
    <!-- Generator: Sketch 49 (51002) - http://www.bohemiancoding.com/sketch -->
    <title>coupon_block_icon_error</title>
    <desc>Created with Sketch.</desc>
    <defs></defs>
    <g id="coupon-claim-from-inbox" stroke="none" stroke-width="1" fill="none" fill-rule="evenodd">
        <g id="coupon-expired-page" transform="translate(-590.000000, -231.000000)" fill-rule="nonzero">
            <g id="coupon_block_icon_error" transform="translate(590.000000, 231.000000)">
                <g id="Clipped">
                    <g id="Group" transform="translate(-3.703704, -3.703704)">
                        <polygon id="Shape" fill="#FFFFFF" points="103.703704 51.8518519 100 51.8518519 100 55.4320988 92.8395062 55.4320988 92.8395062 63.8271605 81.2345679 63.8271605 81.2345679 72.5925926 67.2839506 72.5925926 67.2839506 79.6296296 54.0740741 79.6296296 54.0740741 86.4197531 42.2222222 86.4197531 42.2222222 92.345679 29.6296296 92.345679 29.6296296 97.7777778 17.1604938 97.7777778 17.1604938 103.703704 3.7037037 103.703704 3.7037037 3.7037037 103.703704 3.7037037"></polygon>
                        <g id="coupon_block_icon_LG_error">
                            <g id="Rectangle" fill="#394857">
                                <polygon id="Shape" points="7.40740741 7.40740741 19.2592593 7.40740741 19.2592593 0 0 0 0 12.5925926 7.40740741 12.5925926"></polygon>
                                <rect id="Rectangle-path" x="28.1481481" y="0" width="15.5555556" height="7.40740741"></rect>
                                <rect id="Rectangle-path" x="0" y="21.4814815" width="7.40740741" height="15.5555556"></rect>
                                <rect id="Rectangle-path" x="77.037037" y="0" width="15.5555556" height="7.40740741"></rect>
                                <rect id="Rectangle-path" x="52.5925926" y="0" width="15.5555556" height="7.40740741"></rect>
                                <polygon id="Shape" points="101.481481 0 101.481481 3.7037037 100 3.7037037 100 17.037037 107.407407 17.037037 107.407407 0"></polygon>
                                <rect id="Rectangle-path" x="100" y="25.9259259" width="7.40740741" height="15.5555556"></rect>
                                <rect id="Rectangle-path" x="0" y="45.9259259" width="7.40740741" height="15.5555556"></rect>
                                <rect id="Rectangle-path" x="0" y="70.3703704" width="7.40740741" height="15.5555556"></rect>
                                <polygon id="Shape" points="7.40740741 94.8148148 0 94.8148148 0 107.407407 10.3703704 107.407407 10.3703704 100 7.40740741 100"></polygon>
                            </g>
                            <g id="Group-30" transform="translate(48.148148, 30.300771)" fill="#394857">
                                <g id="coupon" transform="translate(0.000000, -0.000000)">
                                    <g id="Group-39" transform="translate(0.000000, -0.000000)">
                                        <polygon id="Fill-7" points="0 4.51404425 40 4.51404425 40 0.0695998011 0 0.0695998011"></polygon>
                                        <polygon id="Fill-7-2" points="0 15.6251554 40 15.6251554 40 11.1807109 0 11.1807109"></polygon>
                                        <polygon id="Fill-7-3" points="0 26.7362665 22.2222222 26.7362665 22.2222222 22.291822 0 22.291822"></polygon>
                                    </g>
                                </g>
                            </g>
                            <path d="M32.0987654,45.0617284 L31.4814815,52.2222222 C34.4444444,52.0987654 36.9135802,50.9876543 36.9135802,48.5185185 C36.9135802,46.7901235 35.1851852,45.9259259 32.0987654,45.0617284 Z M29.5061728,39.6296296 L30,33.0864198 C27.4074074,33.3333333 25.4320988,34.5679012 25.4320988,36.5432099 C25.5555556,38.2716049 26.7901235,38.8888889 29.5061728,39.6296296 Z M33.9506173,29.6296296 C37.654321,30.1234568 41.3580247,31.7283951 41.3580247,35.0617284 C41.4377392,35.7659109 41.2338749,36.4728615 40.7914486,37.0264735 C40.3490222,37.5800855 39.7044268,37.9348201 39,38.0123457 L38.6419753,38.0123457 C37.8609088,38.0725275 37.0911915,37.7971172 36.5255992,37.2550913 C35.960007,36.7130653 35.6521068,35.9557589 35.6790123,35.1728395 C35.6305441,34.7058965 35.7161957,34.2348126 35.9259259,33.8148148 C35.0980075,33.4788472 34.2238211,33.2707075 33.3333333,33.1975309 L32.7160494,40.3580247 C36.9135802,41.345679 41.8518519,43.0740741 41.8518519,48.0123457 C41.8518519,53.3209877 36.9135802,55.7901235 31.3580247,55.9135802 L30.8641975,61.3580247 L27.1604938,60.9876543 L27.654321,55.5555556 C23.8271605,54.9382716 19.6296296,53.2098765 19.6296296,49.6296296 C19.5927718,48.8468615 19.8688092,48.0815832 20.3968609,47.5025791 C20.9249126,46.923575 21.6616,46.5784095 22.4444444,46.5432099 L22.5925926,46.5432099 C24.1669425,46.4225783 25.5419697,47.5988063 25.6666667,49.1728395 C25.6666667,49.2386831 25.6666667,49.308642 25.6666667,49.382716 C25.6449696,49.8847525 25.5620514,50.3822613 25.4197531,50.8641975 C26.3552958,51.3433547 27.3586931,51.6764326 28.3950617,51.8518519 L29.0123457,44.1975309 C24.9382716,43.0864198 20.7407407,41.4814815 20.7407407,36.9135802 C20.7407407,32.8395062 24.4444444,29.7530864 30.2469136,29.382716 L30.617284,25.8024691 L34.3209877,26.1728395 L33.9506173,29.6296296 Z" id="Fill-19" fill="#56CCD3"></path>
                        </g>
                        <polygon id="Shape" fill="#5AA1C7" points="54.0740741 79.6296296 67.2839506 79.6296296 67.2839506 74.8148148 32.5925926 74.8148148 32.5925926 85.9259259 54.0740741 85.9259259"></polygon>
                    </g>
                </g>
                <polygon id="Shape" fill="#B3B3B3" points="14.5536582 100 12.0805369 100 12.0805369 92.848447 24.5697996 92.848447 24.5697996 87.423131 37.1827184 87.423131 37.1827184 81.5046043 49.0537007 81.5046043 49.0537007 74.7229593 62.2848998 74.7229593 62.2848998 67.6947089 76.2580353 67.6947089 76.2580353 58.9402216 87.8817055 58.9402216 87.8817055 50.5556423 95.0537574 50.5556423 95.0537574 46.9798658 100 46.9798658 100 49.4459185 97.5268787 49.4459185 97.5268787 53.021695 90.3548268 53.021695 90.3548268 61.4062744 78.7311566 61.4062744 78.7311566 70.1607617 64.7580211 70.1607617 64.7580211 77.189012 51.526822 77.189012 51.526822 83.9706571 39.6558397 83.9706571 39.6558397 89.8891837 27.0429209 89.8891837 27.0429209 95.3144998 14.5536582 95.3144998"></polygon>
            </g>
        </g>
    </g>
</svg>