<?xml version="1.0" encoding="utf-8"?>
<!-- Generator: Adobe Illustrator 21.1.0, SVG Export Plug-In . SVG Version: 6.00 Build 0)  -->
<svg version="1.1" id="Guides" xmlns="http://www.w3.org/2000/svg" xmlns:xlink="http://www.w3.org/1999/xlink" x="0px" y="0px"
	 viewBox="0 0 16 16" style="enable-background:new 0 0 16 16;" xml:space="preserve">
<style type="text/css">
	.st0{fill:#69B29C;}
</style>
<path class="st0" d="M13,1c0-1-0.5-1-1-1H4C3.6,0,3.3,0.2,3.1,0.6C3,0.7,3,0.8,3,1v14v0c0,0.6,0.4,1,1,1h7.6H12
	c0.3,0,0.6-0.2,0.8-0.4c0,0,0-0.1,0.1-0.1c0,0,0.1-0.1,0.1-0.1c0-0.1,0.1-0.2,0.1-0.3v0V1z M7,2h2v1H7V2z M8,15c-0.6,0-1-0.4-1-1
	c0-0.6,0.4-1,1-1s1,0.4,1,1C9,14.6,8.6,15,8,15z M12,12H4V4h8V12z"/>
</svg>
