<?xml version="1.0" encoding="UTF-8"?>
<svg width="36px" height="25px" viewBox="0 0 36 25" version="1.1" xmlns="http://www.w3.org/2000/svg" xmlns:xlink="http://www.w3.org/1999/xlink">
    <!-- Generator: Sketch 49 (51002) - http://www.bohemiancoding.com/sketch -->
    <title>ctct_logo_white_small</title>
    <desc>Created with Sketch.</desc>
    <defs></defs>
    <g id="coupon-claim-from-inbox" stroke="none" stroke-width="1" fill="none" fill-rule="evenodd">
        <g id="coupon-doesn't-exist-page" transform="translate(-29.000000, -12.000000)" fill="#FFFFFF">
            <g id="ctct_logo_white_small" transform="translate(29.000000, 12.000000)">
                <path d="M24.6445312,7.1171875 L24.8554688,7.1171875 C24.5742173,7.9375041 24.3046888,8.7226525 24.046875,9.47265625 C23.7890612,10.22266 23.5781258,10.9960898 23.4140625,11.7929688 C23.0390606,11.7929688 22.6816423,11.7988281 22.3417969,11.8105469 C22.0019514,11.8222657 21.6914077,11.8749995 21.4101562,11.96875 C20.7070277,12.0625005 19.9921911,12.1914054 19.265625,12.3554688 C18.5390589,12.5195321 17.8125036,12.6953116 17.0859375,12.8828125 C17.2734384,12.1562464 17.525389,11.4414098 17.8417969,10.7382812 C18.1582047,10.0351527 18.4453112,9.36719066 18.703125,8.734375 C19.7109425,8.38281074 20.7070263,8.07226697 21.6914062,7.80273438 C22.6757862,7.53320178 23.6601513,7.30468844 24.6445312,7.1171875 Z" id="Path"></path>
                <path d="M14.0273438,6.94140625 C13.582029,7.57422191 13.1777362,8.20702809 12.8144531,8.83984375 C12.4511701,9.47265941 12.1406263,10.093747 11.8828125,10.703125 C11.2499968,11.0781269 10.6171907,11.4472638 9.984375,11.8105469 C9.35155934,12.1738299 8.71875316,12.5312482 8.0859375,12.8828125 L9.2109375,10.984375 C9.58593937,10.3515593 9.99609152,9.71875316 10.4414062,9.0859375 C11.0742219,8.73437324 11.6718722,8.37695494 12.234375,8.01367188 C12.7968778,7.65038881 13.3945281,7.29297051 14.0273438,6.94140625 Z" id="Path"></path>
                <path d="M10.7929688,15.0273438 C11.0742202,14.3945281 11.349608,13.7734405 11.6191406,13.1640625 C11.8886732,12.5546845 12.1523425,11.9804714 12.4101562,11.4414062 C13.3242233,10.9960915 14.226558,10.5859394 15.1171875,10.2109375 C16.007817,9.83593563 16.9101517,9.46093937 17.8242188,9.0859375 C17.4726545,9.71875316 17.1562514,10.3808559 16.875,11.0722656 C16.5937486,11.7636753 16.3710946,12.4257781 16.2070312,13.0585938 C15.2929642,13.3398452 14.3906295,13.6503889 13.5,13.9902344 C12.6093705,14.3300798 11.7070358,14.6757795 10.7929688,15.0273438 Z" id="Path"></path>
                <path d="M25.2070312,6.203125 C25.1132808,6.203125 25.0136724,6.22656227 24.9082031,6.2734375 C24.8027338,6.32031273 24.6562509,6.29687547 24.46875,6.203125 C23.5781205,6.39062594 22.6816451,6.61327996 21.7792969,6.87109375 C20.8769486,7.12890754 19.9804732,7.38671746 19.0898438,7.64453125 C19.441408,6.94140273 19.8046856,6.22656613 20.1796875,5.5 C20.5546894,4.77343387 20.9648415,4.05859727 21.4101562,3.35546875 C22.4179738,2.98046688 23.4140576,2.65234516 24.3984375,2.37109375 L27.3515625,1.52734375 C26.9999982,2.25390988 26.6425799,3.01562102 26.2792969,3.8125 C25.9160138,4.60937898 25.5585955,5.40624602 25.2070312,6.203125 Z" id="Path"></path>
                <path d="M3.796875,17.2070312 C4.14843926,16.8320294 4.51171687,16.5039077 4.88671875,16.2226562 C5.26172063,15.9414048 5.67187277,15.6718763 6.1171875,15.4140625 C5.85937371,15.9531277 5.63086037,16.4628882 5.43164062,16.9433594 C5.23242088,17.4238305 5.03906344,17.9335911 4.8515625,18.4726562 C4.40624777,18.8242205 3.93164314,19.1816388 3.42773438,19.5449219 C2.92382561,19.9082049 2.43750234,20.2656232 1.96875,20.6171875 C2.25000141,19.9843718 2.53124859,19.3925809 2.8125,18.8417969 C3.09375141,18.2910129 3.42187312,17.7460964 3.796875,17.2070312 Z" id="Path"></path>
                <path d="M11.3554688,11.96875 C11.0742173,12.5078152 10.8046888,13.0820282 10.546875,13.6914062 C10.2890612,14.3007843 10.0781258,14.8749973 9.9140625,15.4140625 C9.18749637,15.7656268 8.50195635,16.1289044 7.85742188,16.5039062 C7.2128874,16.8789081 6.57422191,17.2890603 5.94140625,17.734375 C6.12890719,17.1953098 6.34570189,16.6562527 6.59179688,16.1171875 C6.83789186,15.5781223 7.10156109,15.0390652 7.3828125,14.5 C8.01562816,14.0546853 8.67773092,13.6152365 9.36914062,13.1816406 C10.0605503,12.7480447 10.7226531,12.3437519 11.3554688,11.96875 Z" id="Path"></path>
                <path d="M25.734375,6.94140625 C26.9062559,6.75390531 28.0781191,6.62500035 29.25,6.5546875 C30.4218809,6.48437465 31.5937441,6.49609328 32.765625,6.58984375 L33.1171875,6.58984375 C32.7656232,7.4804732 32.4433608,8.34765203 32.1503906,9.19140625 C31.8574204,10.0351605 31.5820325,10.9023393 31.3242188,11.7929687 C30.2460884,11.6992183 29.0976623,11.6523437 27.8789062,11.6523437 C26.6601502,11.6523437 25.4648496,11.6992183 24.2929688,11.7929687 C24.4804697,10.9960898 24.7031237,10.1933634 24.9609375,9.38476562 C25.2187513,8.57616783 25.4765612,7.76172285 25.734375,6.94140625 Z" id="Path"></path>
                <path d="M28.4414062,1.3515625 C29.9648514,0.999998242 31.3417907,0.753906953 32.5722656,0.61328125 C33.8027405,0.472655547 34.8281209,0.367187852 35.6484375,0.296875 C35.2031228,1.09375398 34.7578147,1.93749555 34.3125,2.828125 C33.8671853,3.71875445 33.4687518,4.60937055 33.1171875,5.5 L32.5898438,5.5 C31.5117134,5.5 30.4277398,5.54687453 29.3378906,5.640625 C28.2480414,5.73437547 27.1640679,5.86328043 26.0859375,6.02734375 C26.4609394,5.23046477 26.8359356,4.457035 27.2109375,3.70703125 C27.5859394,2.9570275 27.9960915,2.1718791 28.4414062,1.3515625 Z" id="Path"></path>
                <path d="M16.734375,13.796875 C17.5546916,13.6093741 18.3691366,13.4335946 19.1777344,13.2695312 C19.9863322,13.1054679 20.7890585,12.976563 21.5859375,12.8828125 C21.8671889,12.8828125 22.1425768,12.8535159 22.4121094,12.7949219 C22.681642,12.7363278 22.9453112,12.7070312 23.203125,12.7070312 C22.9453112,13.5039102 22.7578131,14.3066366 22.640625,15.1152344 C22.5234369,15.9238322 22.4179692,16.7382771 22.3242188,17.5585938 C21.6914031,17.5585938 21.0293003,17.5644531 20.3378906,17.5761719 C19.6464809,17.5878907 18.9843782,17.6406245 18.3515625,17.734375 C17.9062478,17.734375 17.4609397,17.7753902 17.015625,17.8574219 C16.5703103,17.9394535 16.1132836,18.0156246 15.6445312,18.0859375 C15.8320322,17.382809 16.013671,16.6679724 16.1894531,15.9414062 C16.3652353,15.2148401 16.5468741,14.5000035 16.734375,13.796875 Z" id="Path"></path>
                <path d="M0,24.765625 C0.187500938,24.3906231 0.369139746,23.9863303 0.544921875,23.5527344 C0.720704004,23.1191385 0.902342812,22.6796897 1.08984375,22.234375 C1.53515848,21.6953098 2.05077832,21.2265645 2.63671875,20.828125 C3.22265918,20.4296855 3.78515355,19.9960961 4.32421875,19.5273438 C4.13671781,20.0664089 3.96093832,20.5703102 3.796875,21.0390625 C3.63281168,21.5078148 3.50390672,21.9648415 3.41015625,22.4101562 C2.87109105,22.7851581 2.30273736,23.1601544 1.70507812,23.5351562 C1.10741889,23.9101581 0.539065195,24.3203103 0,24.765625 Z" id="Path"></path>
                <path d="M10.4414062,15.9414062 C11.3320357,15.589842 12.2343704,15.238283 13.1484375,14.8867188 C14.0625046,14.5351545 15.0234325,14.23047 16.03125,13.9726562 C15.7499986,14.6757848 15.5214853,15.3613248 15.3457031,16.0292969 C15.169921,16.697269 15.0351567,17.382809 14.9414062,18.0859375 C13.9570263,18.2734384 13.0078171,18.4960925 12.09375,18.7539062 L9.3515625,19.5273438 C9.53906344,18.9882786 9.72070225,18.4140655 9.89648438,17.8046875 C10.0722665,17.1953095 10.2539053,16.5742219 10.4414062,15.9414062 Z" id="Path"></path>
            </g>
        </g>
    </g>
</svg>