<?xml version="1.0" encoding="utf-8"?>
<!-- Generator: Adobe Illustrator 21.1.0, SVG Export Plug-In . SVG Version: 6.00 Build 0)  -->
<svg version="1.1" id="Guides" xmlns="http://www.w3.org/2000/svg" xmlns:xlink="http://www.w3.org/1999/xlink" x="0px" y="0px"
	 viewBox="0 0 16 16" style="enable-background:new 0 0 16 16;" xml:space="preserve">
<style type="text/css">
	.st0{fill:#8B9DC3;}
</style>
<path class="st0" d="M13.5,1h-11C1.7,1,1,1.7,1,2.5v11C1,14.3,1.7,15,2.5,15H8v-5H6V8h2V6c0-1.8,1.1-3,2.8-3c0.8,0,1.8,0,2.2,0.2V5
	h-1.5C10.6,5,10,5.4,10,6v2h3l-0.5,2H10v5h3.5c0.8,0,1.5-0.7,1.5-1.5v-11C15,1.7,14.3,1,13.5,1z"/>
</svg>
