<?xml version="1.0" encoding="utf-8"?>
<!-- Generator: Adobe Illustrator 21.1.0, SVG Export Plug-In . SVG Version: 6.00 Build 0)  -->
<svg version="1.1" id="Guides" xmlns="http://www.w3.org/2000/svg" xmlns:xlink="http://www.w3.org/1999/xlink" x="0px" y="0px"
	 viewBox="0 0 16 16" style="enable-background:new 0 0 16 16;" xml:space="preserve">
<style type="text/css">
	.st0{fill:#69B29C;}
</style>
<g>
	<rect x="3" y="6" class="st0" width="3" height="6"/>
	<path class="st0" d="M13,6H7v6h6V6z M12,11H8V7h4V11z"/>
	<path class="st0" d="M15.5,1h-15C0.2,1,0,1.2,0,1.5v13C0,14.8,0.2,15,0.5,15h15c0.3,0,0.5-0.2,0.5-0.5v-13C16,1.2,15.8,1,15.5,1z
		 M2,3h9v1H2V3z M14,13H2V5h12V13z M14,4h-2V3h2V4z"/>
</g>
</svg>
