<?xml version="1.0" encoding="utf-8"?>
<!-- Generator: Adobe Illustrator 17.0.0, SVG Export Plug-In . SVG Version: 6.00 Build 0)  -->
<svg version="1.2" baseProfile="tiny" id="Guides" xmlns="http://www.w3.org/2000/svg" xmlns:xlink="http://www.w3.org/1999/xlink"
	 x="0px" y="0px" width="16px" height="16px" viewBox="0 0 16 16" overflow="visible" xml:space="preserve">
<g>
	<path d="M8.222168,9.4477539C8.1523438,9.4824219,8.0761719,9.5,8,9.5S7.8476562,9.4824219,7.777832,9.4477539L5.8932495,8.5121765
		l-4.7275696,3.3766174C1.4127502,12.5021057,1.9144592,13,2.5,13h11c0.6205139,0,1.152832-0.5562744,1.3810425-1.2197876
		L9.9725342,8.5788269L8.222168,9.4477539z"/>
	<polygon points="1,6.0830383 1,10.7785645 4.8781433,8.0082703 	"/>
	<path d="M13.5,3h-11C1.6715698,3,1,3.491333,1,4.4058228v0.5611267l7,3.4749451l1.7162781-0.8519897
		c0.0115051-0.0079651,0.0246887-0.011322,0.0367737-0.0182495L15,4.9669495V4.4058228C15,3.491333,14.3284302,3,13.5,3z"/>
	<polygon points="15,10.6639709 15,6.0830383 11.0115967,8.0629883 	"/>
</g>
</svg>
