<?xml version="1.0" encoding="utf-8"?>
<!-- Generator: Adobe Illustrator 18.0.0, SVG Export Plug-In . SVG Version: 6.00 Build 0)  -->
<svg version="1.2" baseProfile="tiny" id="Guides" xmlns="http://www.w3.org/2000/svg" xmlns:xlink="http://www.w3.org/1999/xlink"
	 x="0px" y="0px" viewBox="0 0 16 16" xml:space="preserve">
<g>
	<path d="M2,4h11v1h2V2.5C15,2.2236328,14.7763672,2,14.5,2h-14C0.2236328,2,0,2.2236328,0,2.5v9C0,11.7763672,0.2236328,12,0.5,12
		H7v1H5v1h5v-1H8v-1h2v-2H2V4z"/>
	<path d="M15.5,6h-4C11.2236328,6,11,6.2236328,11,6.5v7c0,0.2763672,0.2236328,0.5,0.5,0.5h4c0.2763672,0,0.5-0.2236328,0.5-0.5v-7
		C16,6.2236328,15.7763672,6,15.5,6z M13.5,13.2000122c-0.1104736,0-0.2000122-0.0895996-0.2000122-0.2000122
		c0-0.1104736,0.0895386-0.2000122,0.2000122-0.2000122S13.7000122,12.8895264,13.7000122,13
		C13.7000122,13.1104126,13.6104736,13.2000122,13.5,13.2000122z M15,12h-3V7h3V12z"/>
</g>
</svg>
