<?xml version="1.0" encoding="UTF-8"?>
<svg width="200px" height="30px" viewBox="0 0 200 30" version="1.1" xmlns="http://www.w3.org/2000/svg" xmlns:xlink="http://www.w3.org/1999/xlink">
    <!-- Generator: Sketch 49 (51002) - http://www.bohemiancoding.com/sketch -->
    <title>ctct_logo+grey</title>
    <desc>Created with Sketch.</desc>
    <defs>
        <polygon id="path-1" points="0 0.7444 0 17.8464 13.7405228 17.8464 13.7405228 0.7444 2.71050543e-20 0.7444"></polygon>
        <polygon id="path-3" points="11.9998 0.508 0.3508 0.508 0.3508 7.4117 11.9998 7.4117 11.9998 0.508"></polygon>
    </defs>
    <g id="coupon-claim-from-inbox" stroke="none" stroke-width="1" fill="none" fill-rule="evenodd">
        <g id="coupon-doesn't-exist-page" transform="translate(-540.000000, -956.000000)">
            <g id="ctct_logo+grey" transform="translate(540.000000, 955.000000)">
                <path d="M16.2305,21.7815 C14.9655,21.7815 14.1485,20.7855 14.1485,19.2435 C14.1485,17.2165 15.3345,14.2815 17.4795,14.2815 C19.4155,14.2815 19.5135,16.3555 19.5135,16.7715 C19.5135,19.1365 18.1095,21.7815 16.2305,21.7815 M21.5405,13.2425 C20.6375,12.2495 19.3505,11.7245 17.8135,11.7245 C15.8705,11.7245 14.0895,12.5335 12.7995,14.0045 C11.5555,15.4175 10.8725,17.3065 10.8725,19.3145 C10.8725,22.3215 12.8715,24.3385 15.8465,24.3385 C17.7935,24.3385 19.5785,23.5335 20.8735,22.0725 C22.1245,20.6625 22.8125,18.7795 22.8125,16.7715 C22.8125,15.3985 22.3615,14.1455 21.5405,13.2425" id="Fill-1" fill="#ABB1B7"></path>
                <g id="Group-5" transform="translate(0.000000, 6.492000)">
                    <mask id="mask-2" fill="white">
                        <use xlink:href="#path-1"></use>
                    </mask>
                    <g id="Clip-4"></g>
                    <path d="M10.5376,14.8524 C10.5266,14.7974 10.4926,14.7504 10.4466,14.7234 C10.3976,14.6934 10.3396,14.6864 10.2866,14.7034 C9.5606,14.9274 8.6816,15.0504 7.8076,15.0504 C5.0196,15.0504 3.4206,13.3904 3.4206,10.4954 C3.4206,8.2734 4.2456,6.2694 5.6826,5.0044 C6.7326,4.0904 8.1906,3.5644 9.6806,3.5644 C11.1116,3.5644 12.1646,3.8624 12.6336,4.1174 C12.6826,4.1444 12.7436,4.1474 12.7976,4.1284 C12.8516,4.1084 12.8946,4.0644 12.9126,4.0114 L13.7286,1.7534 C13.7596,1.6694 13.7286,1.5754 13.6536,1.5244 C13.1096,1.1494 11.7376,0.7444 10.0146,0.7444 C7.6556,0.7444 5.5886,1.4024 3.8716,2.7054 C1.4116,4.5384 -0.0004,7.5004 -0.0004,10.8314 C-0.0004,12.9414 0.6666,14.7134 1.9306,15.9554 C3.1836,17.1924 4.9686,17.8464 7.0876,17.8464 C9.4226,17.8464 10.8756,17.3134 11.3916,17.0864 C11.4486,17.0604 11.4896,17.0104 11.5036,16.9524 C11.5166,16.8924 11.5036,16.8284 11.4656,16.7814 C11.4586,16.7714 10.7536,15.8864 10.5376,14.8524" id="Fill-3" fill="#ABB1B7" mask="url(#mask-2)"></path>
                </g>
                <path d="M31.0132,11.7243 C29.4782,11.7243 28.0872,12.4133 27.0362,13.6763 L27.2022,12.2103 C27.2092,12.1533 27.1902,12.0973 27.1522,12.0563 C27.1142,12.0143 27.0622,11.9893 27.0062,11.9893 L24.5332,11.9893 C24.4342,11.9893 24.3512,12.0623 24.3372,12.1593 L24.3072,12.3733 C24.1722,13.3113 24.0072,14.4813 23.7382,15.7753 L22.2272,23.8403 C22.2152,23.8973 22.2312,23.9563 22.2692,24.0023 C22.3052,24.0483 22.3622,24.0743 22.4202,24.0743 L25.2052,24.0743 C25.3012,24.0743 25.3812,24.0073 25.4012,23.9113 L26.4082,18.5113 C26.8822,15.9393 28.4142,14.4003 29.6212,14.4003 C30.4852,14.4003 30.8882,14.8713 30.8882,15.8853 C30.8882,16.3383 30.8122,16.8493 30.7472,17.2403 L29.5012,23.8403 C29.4882,23.8973 29.5042,23.9563 29.5412,24.0013 C29.5782,24.0483 29.6342,24.0743 29.6942,24.0743 L32.4792,24.0743 C32.5742,24.0743 32.6552,24.0073 32.6722,23.9133 L33.9682,17.1203 C34.0982,16.4753 34.1882,15.6613 34.1882,15.1403 C34.1882,13.0343 32.9732,11.7243 31.0132,11.7243" id="Fill-6" fill="#ABB1B7"></path>
                <path d="M98.7983,21.7815 C97.5323,21.7815 96.7143,20.7855 96.7143,19.2435 C96.7143,17.2165 97.9003,14.2815 100.0443,14.2815 C101.9813,14.2815 102.0783,16.3555 102.0783,16.7715 C102.0783,19.1365 100.6773,21.7815 98.7983,21.7815 M104.1073,13.2425 C103.2043,12.2495 101.9163,11.7245 100.3813,11.7245 C98.4383,11.7245 96.6553,12.5335 95.3643,14.0045 C94.1233,15.4175 93.4393,17.3065 93.4393,19.3145 C93.4393,22.3215 95.4363,24.3385 98.4143,24.3385 C100.3603,24.3385 102.1433,23.5335 103.4393,22.0725 C104.6903,20.6625 105.3803,18.7795 105.3803,16.7715 C105.3803,15.3985 104.9283,14.1455 104.1073,13.2425" id="Fill-8" fill="#ABB1B7"></path>
                <path d="M92.9985,21.3444 C92.9865,21.2894 92.9535,21.2424 92.9055,21.2154 C92.8565,21.1854 92.7995,21.1784 92.7475,21.1954 C92.0215,21.4194 91.1425,21.5424 90.2685,21.5424 C87.4795,21.5424 85.8825,19.8824 85.8825,16.9874 C85.8825,14.7654 86.7055,12.7614 88.1415,11.4964 C89.1935,10.5824 90.6505,10.0564 92.1405,10.0564 C93.5725,10.0564 94.6255,10.3544 95.0925,10.6094 C95.1425,10.6364 95.2035,10.6394 95.2585,10.6204 C95.3115,10.6004 95.3535,10.5564 95.3735,10.5034 L96.1885,8.2454 C96.2205,8.1614 96.1885,8.0674 96.1155,8.0164 C95.5695,7.6414 94.1975,7.2364 92.4765,7.2364 C90.1165,7.2364 88.0485,7.8944 86.3335,9.1974 C83.8745,11.0304 82.4605,13.9924 82.4605,17.3234 C82.4605,19.4334 83.1295,21.2054 84.3895,22.4474 C85.6445,23.6844 87.4285,24.3384 89.5475,24.3384 C91.8845,24.3384 93.3365,23.8054 93.8515,23.5784 C93.9085,23.5524 93.9505,23.5024 93.9645,23.4444 C93.9775,23.3844 93.9645,23.3204 93.9265,23.2734 C93.9185,23.2634 93.2135,22.3784 92.9985,21.3444" id="Fill-10" fill="#ABB1B7"></path>
                <path d="M113.6714,11.7243 C112.1354,11.7243 110.7434,12.4133 109.6924,13.6763 L109.8584,12.2103 C109.8654,12.1533 109.8474,12.0973 109.8094,12.0563 C109.7714,12.0143 109.7184,11.9893 109.6614,11.9893 L107.1884,11.9893 C107.0894,11.9893 107.0064,12.0623 106.9934,12.1593 L106.9624,12.3733 C106.8284,13.3113 106.6604,14.4813 106.3944,15.7753 L104.8824,23.8403 C104.8714,23.8973 104.8874,23.9563 104.9244,24.0023 C104.9634,24.0483 105.0164,24.0743 105.0754,24.0743 L107.8614,24.0743 C107.9564,24.0743 108.0394,24.0073 108.0554,23.9113 L109.0624,18.5113 C109.5384,15.9393 111.0704,14.4003 112.2794,14.4003 C113.1434,14.4003 113.5444,14.8713 113.5444,15.8853 C113.5444,16.3383 113.4694,16.8493 113.4024,17.2403 L112.1564,23.8403 C112.1454,23.8973 112.1594,23.9563 112.1974,24.0013 C112.2364,24.0483 112.2914,24.0743 112.3504,24.0743 L115.1334,24.0743 C115.2294,24.0743 115.3114,24.0073 115.3284,23.9133 L116.6254,17.1203 C116.7554,16.4753 116.8454,15.6613 116.8454,15.1403 C116.8454,13.0343 115.6284,11.7243 113.6714,11.7243" id="Fill-12" fill="#ABB1B7"></path>
                <path d="M56.1748,14.2815 C56.5258,14.2815 56.8298,14.3065 57.0948,14.3555 L56.5098,17.2405 C55.9728,20.1275 54.4408,21.6855 53.2718,21.6855 C51.9818,21.6855 51.7888,20.4125 51.7888,19.6515 C51.7888,17.1165 53.6648,14.2815 56.1748,14.2815 L56.1748,14.2815 Z M60.6418,12.4905 C60.6618,12.3925 60.6038,12.2935 60.5108,12.2635 C59.5038,11.9365 58.0958,11.7245 56.9208,11.7245 C53.6678,11.7245 51.6948,13.1885 50.6128,14.4135 C49.2628,15.9415 48.4888,18.0355 48.4888,20.1565 C48.4888,22.6575 49.9568,24.3385 52.1448,24.3385 C53.2828,24.3385 54.8528,23.9065 56.1238,21.9575 C56.0568,22.6755 55.9958,23.3435 55.9788,23.8695 C55.9768,23.9235 55.9958,23.9755 56.0338,24.0135 C56.0698,24.0525 56.1218,24.0745 56.1748,24.0745 L58.7668,24.0745 L58.7698,24.0745 C58.8798,24.0745 58.9668,23.9855 58.9668,23.8755 C58.9668,23.8755 58.9668,23.8545 58.9658,23.8445 C58.9198,22.4445 59.1148,20.2895 59.4418,18.5855 L60.6418,12.4905 Z" id="Fill-14" fill="#ABB1B7"></path>
                <path d="M68.6758,11.7243 C67.1388,11.7243 65.7478,12.4133 64.6978,13.6763 L64.8628,12.2103 C64.8688,12.1533 64.8518,12.0973 64.8148,12.0563 C64.7788,12.0143 64.7248,11.9893 64.6678,11.9893 L62.1938,11.9893 C62.0958,11.9893 62.0138,12.0623 61.9998,12.1593 L61.9708,12.3563 C61.8368,13.3013 61.6688,14.4763 61.4008,15.7753 L59.8878,23.8403 C59.8778,23.8973 59.8928,23.9563 59.9308,24.0023 C59.9678,24.0483 60.0218,24.0743 60.0828,24.0743 L62.8658,24.0743 C62.9628,24.0743 63.0438,24.0073 63.0608,23.9113 L64.0708,18.5113 C64.5438,15.9393 66.0768,14.4003 67.2828,14.4003 C68.1468,14.4003 68.5488,14.8713 68.5488,15.8853 C68.5488,16.3403 68.4728,16.8503 68.4088,17.2403 L67.1608,23.8403 C67.1488,23.8973 67.1648,23.9563 67.2028,24.0013 C67.2388,24.0483 67.2958,24.0743 67.3538,24.0743 L70.1408,24.0743 C70.2348,24.0743 70.3168,24.0073 70.3338,23.9133 L71.6308,17.1203 C71.7588,16.4763 71.8488,15.6623 71.8488,15.1403 C71.8488,13.0343 70.6338,11.7243 68.6758,11.7243" id="Fill-16" fill="#ABB1B7"></path>
                <path d="M144.813,12.197 C144.319,11.98 143.381,11.724 142.356,11.724 C140.237,11.724 138.285,12.543 136.864,14.024 C135.48,15.468 134.717,17.399 134.717,19.459 C134.717,22.425 136.651,24.338 139.645,24.338 C141.557,24.338 142.768,23.808 143.094,23.645 C143.162,23.61 143.207,23.537 143.203,23.459 L143.108,21.299 C143.105,21.234 143.07,21.174 143.014,21.14 C142.96,21.107 142.891,21.101 142.83,21.127 C142.264,21.376 141.477,21.661 140.413,21.661 C138.929,21.661 138.044,20.712 138.044,19.122 C138.044,16.852 139.656,14.401 142.26,14.401 C142.874,14.401 143.406,14.51 143.932,14.744 C143.985,14.766 144.042,14.766 144.093,14.744 C144.145,14.722 144.184,14.678 144.201,14.626 L144.922,12.442 C144.953,12.344 144.907,12.239 144.813,12.197" id="Fill-18" fill="#ABB1B7"></path>
                <path d="M42.4951,12.3523 C41.9811,12.0493 40.9591,11.7243 39.6341,11.7243 C38.2501,11.7243 36.9991,12.1233 36.1101,12.8453 C35.2051,13.5763 34.7081,14.6123 34.7081,15.7633 C34.7081,17.0443 35.5171,18.1293 37.1181,18.9873 C38.3261,19.6153 38.5481,20.0283 38.5481,20.6123 C38.5481,21.3233 37.8851,21.8333 36.9451,21.8543 C35.9711,21.8543 34.8911,21.4483 34.2611,21.1023 C34.2051,21.0723 34.1381,21.0693 34.0811,21.0963 C34.0241,21.1223 33.9831,21.1753 33.9711,21.2383 L33.5521,23.4413 C33.5361,23.5253 33.5771,23.6123 33.6541,23.6523 C34.4281,24.0633 35.5571,24.3173 36.6771,24.3383 L36.6801,24.3383 C38.1481,24.3383 39.4141,23.9643 40.3391,23.2543 C41.3251,22.5033 41.8471,21.4213 41.8471,20.1333 C41.8471,18.3963 40.4061,17.4063 39.3161,16.8123 C38.3051,16.2933 37.9121,15.8923 37.9121,15.3783 C37.9121,14.6913 38.5601,14.2093 39.4891,14.2093 C40.5871,14.2093 41.3651,14.5943 41.5781,14.7123 C41.6291,14.7423 41.6891,14.7453 41.7431,14.7243 C41.7981,14.7043 41.8411,14.6603 41.8591,14.6053 L42.5791,12.5893 C42.6111,12.5003 42.5761,12.4003 42.4951,12.3523" id="Fill-20" fill="#ABB1B7"></path>
                <path d="M47.8047,21.7531 C47.8017,21.6461 47.7097,21.5591 47.6017,21.5641 L47.5807,21.5651 C47.5307,21.5651 47.4797,21.5671 47.4307,21.5671 C46.8527,21.5671 46.5967,21.3011 46.5967,20.7081 C46.5967,20.3311 46.6587,19.8091 46.7837,19.1131 L47.6087,14.9411 L49.4387,14.9411 C49.5227,14.9411 49.5977,14.8861 49.6247,14.8071 L50.3687,12.6481 C50.3917,12.5871 50.3807,12.5221 50.3457,12.4681 C50.3067,12.4171 50.2467,12.3861 50.1827,12.3861 L48.0947,12.3861 L48.7037,9.2251 C48.7177,9.1561 48.6947,9.0881 48.6437,9.0411 C48.5937,8.9961 48.5217,8.9771 48.4547,8.9981 L45.5497,9.8361 C45.4777,9.8571 45.4247,9.9171 45.4107,9.9911 L44.9527,12.3861 L43.5347,12.3861 C43.4507,12.3861 43.3747,12.4391 43.3467,12.5191 L42.6017,14.6781 C42.5807,14.7381 42.5907,14.8051 42.6277,14.8581 C42.6647,14.9091 42.7257,14.9411 42.7897,14.9411 L44.4707,14.9411 L43.5867,19.5121 C43.3987,20.3611 43.3207,21.0211 43.3207,21.7171 C43.3207,22.9831 44.1017,24.3381 46.3007,24.3381 C47.0047,24.3381 47.7627,24.2361 48.1927,24.0871 C48.2617,24.0611 48.3137,23.9981 48.3227,23.9231 L48.3317,23.8551 C48.3357,23.8141 48.3267,23.7711 48.3077,23.7361 C47.9987,23.1701 47.8287,22.5041 47.8047,21.7531" id="Fill-22" fill="#ABB1B7"></path>
                <path d="M152.6846,12.4685 C152.6476,12.4165 152.5866,12.3855 152.5226,12.3855 L150.4416,12.3855 L151.0486,9.2245 C151.0606,9.1565 151.0366,9.0885 150.9846,9.0415 C150.9706,9.0295 150.9556,9.0185 150.9386,9.0105 C150.8966,8.9885 150.8426,8.9835 150.7956,8.9975 L147.8906,9.8365 C147.8186,9.8575 147.7646,9.9175 147.7496,9.9905 L147.2946,12.3855 L145.8736,12.3855 C145.7896,12.3855 145.7146,12.4395 145.6866,12.5185 L144.9426,14.6775 C144.9226,14.7385 144.9316,14.8045 144.9676,14.8585 C145.0056,14.9095 145.0656,14.9415 145.1276,14.9415 L146.8096,14.9415 L145.9276,19.5125 C145.7386,20.3615 145.6596,21.0205 145.6596,21.7175 C145.6596,22.9835 146.4426,24.3385 148.6426,24.3385 L148.6456,24.3385 C149.3476,24.3385 150.1076,24.2365 150.5356,24.0875 C150.6066,24.0615 150.6566,23.9985 150.6656,23.9235 L150.9306,21.7165 C150.9376,21.6555 150.9156,21.5925 150.8686,21.5505 C150.8246,21.5055 150.7646,21.4875 150.7006,21.4975 C150.4826,21.5335 150.2246,21.5565 149.9596,21.5645 C149.9596,21.5645 149.9476,21.5615 149.9406,21.5645 L149.9276,21.5645 C149.8746,21.5655 149.8246,21.5665 149.7726,21.5665 C149.1956,21.5665 148.9386,21.3015 148.9386,20.7075 C148.9386,20.3305 149.0006,19.8075 149.1266,19.1135 L149.9526,14.9415 L151.7786,14.9415 C151.8616,14.9415 151.9376,14.8865 151.9656,14.8075 L152.7106,12.6485 C152.7316,12.5875 152.7216,12.5215 152.6846,12.4685" id="Fill-24" fill="#ABB1B7"></path>
                <path d="M130.7143,14.2815 C131.0643,14.2815 131.3673,14.3065 131.6333,14.3555 L131.0463,17.2405 C130.5113,20.1275 128.9793,21.6855 127.8103,21.6855 C126.5193,21.6855 126.3273,20.4125 126.3273,19.6515 C126.3273,17.1165 128.2033,14.2815 130.7143,14.2815 L130.7143,14.2815 Z M135.1793,12.4905 C135.1993,12.3925 135.1433,12.2935 135.0473,12.2635 C134.0403,11.9365 132.6333,11.7245 131.4573,11.7245 C128.2073,11.7245 126.2323,13.1885 125.1503,14.4135 C123.8023,15.9415 123.0273,18.0355 123.0273,20.1565 C123.0273,22.6575 124.4953,24.3385 126.6813,24.3385 C127.8213,24.3385 129.3873,23.9065 130.6613,21.9575 C130.5933,22.6755 130.5353,23.3435 130.5153,23.8695 C130.5133,23.9235 130.5343,23.9755 130.5723,24.0135 C130.6083,24.0525 130.6603,24.0745 130.7143,24.0745 L133.3063,24.0745 L133.3083,24.0745 C133.4173,24.0745 133.5063,23.9855 133.5063,23.8755 C133.5063,23.8755 133.5053,23.8545 133.5033,23.8445 C133.4593,22.4445 133.6533,20.2895 133.9813,18.5855 L135.1793,12.4905 Z" id="Fill-26" fill="#ABB1B7"></path>
                <path d="M122.1133,21.7531 C122.1113,21.6461 122.0213,21.5591 121.9113,21.5641 L121.8923,21.5651 C121.8403,21.5651 121.7913,21.5671 121.7403,21.5671 C121.1623,21.5671 120.9053,21.3011 120.9053,20.7081 C120.9053,20.3311 120.9683,19.8091 121.0933,19.1131 L121.9203,14.9411 L123.7483,14.9411 C123.8333,14.9411 123.9073,14.8861 123.9363,14.8071 L124.6823,12.6481 C124.7003,12.5871 124.6933,12.5221 124.6543,12.4681 C124.6183,12.4171 124.5583,12.3861 124.4933,12.3861 L122.4053,12.3861 L123.0143,9.2251 C123.0273,9.1561 123.0043,9.0881 122.9543,9.0411 C122.9033,8.9961 122.8323,8.9771 122.7663,8.9981 L119.8613,9.8361 C119.7913,9.8571 119.7353,9.9171 119.7203,9.9911 L119.2643,12.3861 L117.3213,12.3861 C117.2503,12.3861 117.1843,12.4241 117.1503,12.4871 C117.1163,12.5491 117.1173,12.6251 117.1533,12.6871 C117.3483,13.0001 117.6103,13.8031 117.5413,14.7281 C117.5373,14.7831 117.5573,14.8361 117.5943,14.8771 C117.6303,14.9171 117.6843,14.9411 117.7393,14.9411 L118.7803,14.9411 L117.8993,19.5121 C117.7093,20.3611 117.6293,21.0211 117.6293,21.7171 C117.6293,22.9831 118.4143,24.3381 120.6123,24.3381 C121.3153,24.3381 122.0753,24.2361 122.5023,24.0871 C122.5733,24.0611 122.6233,23.9981 122.6333,23.9231 L122.6413,23.8551 C122.6483,23.8141 122.6393,23.7711 122.6183,23.7361 C122.3103,23.1701 122.1403,22.5041 122.1133,21.7531" id="Fill-28" fill="#ABB1B7"></path>
                <path d="M155.8926,8.1252 C155.8926,7.8752 155.6576,7.8022 155.3736,7.8022 L155.1696,7.8022 L155.1696,8.4582 L155.3736,8.4582 C155.6636,8.4582 155.8806,8.4022 155.8926,8.1252 L155.8926,8.1252 Z M156.4196,9.6572 L155.8576,9.6572 L155.4476,8.7702 L155.1636,8.7702 L155.1636,9.6572 L154.6696,9.6572 L154.6696,7.4972 L155.5046,7.4972 C155.9076,7.4972 156.4136,7.6032 156.4196,8.0962 C156.4246,8.3912 156.2516,8.5872 155.9416,8.6862 L156.4196,9.6572 Z M157.1086,8.6362 C157.1136,7.6792 156.3806,6.9572 155.4756,6.9572 C154.6076,6.9572 153.8256,7.6792 153.8256,8.6062 C153.8256,9.7022 154.8086,10.2362 155.4306,10.2582 C156.3466,10.2582 157.1026,9.4972 157.1086,8.6362 L157.1086,8.6362 Z M157.3976,8.6192 C157.3976,9.5812 156.5976,10.5692 155.4626,10.5692 C154.3646,10.5912 153.5366,9.6342 153.5366,8.6192 C153.5366,7.1902 154.6926,6.6472 155.4626,6.6472 C155.9626,6.6472 157.3976,7.0202 157.3976,8.6192 L157.3976,8.6192 Z" id="Fill-30" fill="#ABB1B7"></path>
                <path d="M79.5381,12.4685 C79.4991,12.4165 79.4411,12.3855 79.3751,12.3855 L77.2881,12.3855 L77.8981,9.2245 C77.9121,9.1565 77.8891,9.0885 77.8361,9.0415 C77.7871,8.9955 77.7161,8.9775 77.6481,8.9975 L74.7431,9.8365 C74.6711,9.8575 74.6181,9.9175 74.6031,9.9905 L74.1471,12.3855 L72.2051,12.3855 C72.1331,12.3855 72.0671,12.4245 72.0331,12.4875 C71.9961,12.5495 71.9981,12.6255 72.0351,12.6875 C72.2301,13.0005 72.4931,13.8025 72.4241,14.7275 C72.4201,14.7835 72.4391,14.8365 72.4751,14.8765 C72.5141,14.9175 72.5651,14.9415 72.6211,14.9415 L73.6631,14.9415 L72.7801,19.5125 C72.7361,19.7145 72.6981,19.9045 72.6651,20.0875 C72.5601,20.6765 72.5131,21.1855 72.5131,21.7175 C72.5131,22.9835 73.2971,24.3385 75.4971,24.3385 L75.5001,24.3385 C76.2021,24.3385 76.9631,24.2365 77.3891,24.0875 C77.4611,24.0615 77.5121,23.9985 77.5191,23.9235 L77.7841,21.7165 C77.7921,21.6555 77.7701,21.5925 77.7241,21.5505 C77.6791,21.5055 77.6181,21.4875 77.5551,21.4975 C77.3361,21.5335 77.0791,21.5565 76.8131,21.5645 C76.8131,21.5645 76.8011,21.5615 76.7941,21.5645 L76.7811,21.5645 C76.7291,21.5655 76.6781,21.5665 76.6261,21.5665 C76.0501,21.5665 75.7931,21.3015 75.7931,20.7075 C75.7931,20.3305 75.8551,19.8075 75.9811,19.1135 L76.6201,15.8925 L76.6131,15.8925 L76.8021,14.9415 L78.6321,14.9415 C78.7171,14.9415 78.7931,14.8865 78.8181,14.8075 L79.5631,12.6485 C79.5851,12.5875 79.5741,12.5215 79.5381,12.4685" id="Fill-32" fill="#ABB1B7"></path>
                <path d="M177.4292,16.0959 C179.1802,15.6509 180.9692,15.2909 182.7502,15.0299 C183.5112,14.9189 184.3002,14.8199 185.0952,14.7419 C185.5852,12.8429 186.1912,10.9389 186.9012,9.0739 L186.6622,9.1169 C184.2432,9.5709 181.8042,10.2069 179.4192,11.0079 C178.6662,12.6749 177.9972,14.3859 177.4292,16.0959" id="Fill-34" fill="#ABB1B7"></path>
                <path d="M171.1123,13.55 C171.8833,11.982 172.7413,10.432 173.6633,8.935 C172.2563,9.74 170.8583,10.61 169.4993,11.521 C168.4563,13.027 167.4853,14.589 166.6103,16.172 C168.0733,15.224 169.5863,14.344 171.1123,13.55" id="Fill-36" fill="#ABB1B7"></path>
                <path d="M176.3794,16.3762 C176.9094,14.7132 177.5344,13.0492 178.2384,11.4192 C176.0354,12.2142 173.8694,13.1572 171.7964,14.2252 C171.0884,15.6832 170.4464,17.1792 169.8844,18.6772 C171.9624,17.7712 174.1454,16.9982 176.3794,16.3762" id="Fill-38" fill="#ABB1B7"></path>
                <path d="M186.521,8.2146 C186.781,8.1646 187.038,8.1186 187.292,8.0756 C188.063,6.1626 188.959,4.2606 189.957,2.4166 C187.595,2.9786 185.203,3.7146 182.843,4.6056 C181.782,6.3096 180.809,8.0796 179.948,9.8716 C182.116,9.1816 184.325,8.6246 186.521,8.2146" id="Fill-40" fill="#ABB1B7"></path>
                <path d="M162.6069,22.6506 C163.0659,21.4316 163.5849,20.2026 164.1519,18.9876 C163.1819,19.7066 162.2349,20.4576 161.3299,21.2216 C160.5079,22.5496 159.7439,23.9136 159.0559,25.2826 C160.1919,24.3516 161.3829,23.4676 162.6069,22.6506" id="Fill-42" fill="#ABB1B7"></path>
                <path d="M168.7226,19.2019 C169.2296,17.7749 169.8106,16.3429 170.4526,14.9389 C168.8426,15.8249 167.2466,16.8109 165.7066,17.8749 C165.0516,19.1669 164.4486,20.4879 163.9136,21.8069 C165.4596,20.8479 167.0766,19.9729 168.7226,19.2019" id="Fill-44" fill="#ABB1B7"></path>
                <path d="M186.0635,14.6496 C188.9565,14.4076 191.8675,14.3886 194.5635,14.6026 C195.2065,12.3456 195.8875,10.2126 196.6395,8.2076 C196.5155,8.2066 196.3905,8.2066 196.2635,8.2066 C193.5515,8.2066 190.7565,8.4376 187.9515,8.8926 C187.2065,10.7856 186.5735,12.7206 186.0635,14.6496" id="Fill-46" fill="#ABB1B7"></path>
                <g id="Group-50" transform="translate(188.000000, 0.492000)">
                    <mask id="mask-4" fill="white">
                        <use xlink:href="#path-3"></use>
                    </mask>
                    <g id="Clip-49"></g>
                    <path d="M8.2598,6.7997 C8.5118,6.7997 8.7558,6.8027 8.9888,6.8047 C9.8808,4.5437 10.8938,2.4267 11.9998,0.5077 C9.9758,0.5857 6.8708,0.8507 3.1488,1.6527 C2.1048,3.5167 1.1648,5.4537 0.3508,7.4117 C3.0178,7.0057 5.6768,6.7997 8.2598,6.7997" id="Fill-48" fill="#ABB1B7" mask="url(#mask-4)"></path>
                </g>
                <path d="M175.811,22.2878 C176.867,22.1088 177.931,21.9598 178.979,21.8488 C180.566,21.6798 182.204,21.5798 183.849,21.5498 C184.047,19.6578 184.389,17.6858 184.864,15.6838 C184.195,15.7558 183.523,15.8418 182.859,15.9398 C180.926,16.2228 178.988,16.6228 177.099,17.1278 C176.565,18.8618 176.132,20.5948 175.811,22.2878" id="Fill-51" fill="#ABB1B7"></path>
                <path d="M161.0488,27.5666 C161.3358,26.4416 161.6798,25.2866 162.0758,24.1266 C160.6948,25.1086 159.3548,26.1826 158.0878,27.3226 C157.6108,28.3926 157.1818,29.4566 156.8128,30.4916 C158.1338,29.4336 159.5568,28.4506 161.0488,27.5666" id="Fill-53" fill="#ABB1B7"></path>
                <path d="M174.8515,22.4607 C175.1505,20.8127 175.5565,19.1177 176.0585,17.4197 C173.7855,18.0807 171.5625,18.9057 169.4505,19.8747 C168.9395,21.3457 168.5065,22.8197 168.1585,24.2587 C170.2925,23.5067 172.5435,22.9017 174.8515,22.4607" id="Fill-55" fill="#ABB1B7"></path>
            </g>
        </g>
    </g>
</svg>