<?xml version="1.0" encoding="utf-8"?>
<!-- Generator: Adobe Illustrator 21.1.0, SVG Export Plug-In . SVG Version: 6.00 Build 0)  -->
<svg version="1.1" id="Guides" xmlns="http://www.w3.org/2000/svg" xmlns:xlink="http://www.w3.org/1999/xlink" x="0px" y="0px"
	 viewBox="0 0 16 16" style="enable-background:new 0 0 16 16;" xml:space="preserve">
<style type="text/css">
	.st0{fill:#61A7D5;}
</style>
<path class="st0" d="M14.5,3h-13C1.2,3,1,3.2,1,3.5v9C1,12.8,1.2,13,1.5,13h13c0.3,0,0.5-0.2,0.5-0.5v-9C15,3.2,14.8,3,14.5,3z
	 M2,4.7l3.6,3L2,11.3V4.7z M8,8.3L2.8,4h10.4L8,8.3z M6.4,8.4C6.4,8.3,6.4,8.3,6.4,8.4l1.3,1C7.8,9.5,7.9,9.5,8,9.5
	c0.1,0,0.2,0,0.3-0.1l1.3-1.1l3.6,3.6H2.7L6.4,8.4z M10.4,7.7l3.6-3v6.6L10.4,7.7z"/>
</svg>
